# AST/ASF file generated using VICON BodyLanguage
# -----------------------------------------------
:version 1.10
:name VICON
:units
  mass 1.0
  length 0.45
  angle deg
:documentation
   .ast/.asf automatically generated from VICON data using
   VICON BodyBuilder and BodyLanguage model FoxedUp or BRILLIANT.MOD
:root
   order TX TY TZ RX RY RZ
   axis XYZ
   position 0 0 0  
   orientation 0 0 0 
:bonedata
  begin
     id 1 
     name lhipjoint
     direction 0.710087 -0.641647 0.289942 
     length 2.79038 
     axis 0 0 0  XYZ
  end
  begin
     id 2 
     name lfemur
     direction 0.34202 -0.939693 0  
     length 7.2706  
     axis 0 0 20  XYZ
    dof rx ry rz
    limits (-160.0 20.0)
           (-70.0 70.0)
           (-60.0 70.0)
  end
  begin
     id 3 
     name ltibia
     direction 0.34202 -0.939693 0   
     length 7.86328   
     axis 0 0 20   XYZ
    dof rx
    limits (-10.0 170.0)
  end
  begin
     id 4 
     name lfoot
     direction 0.0541246 -0.148706 0.987399   
     length 2.37542   
     axis -90 7.62852e-016 20   XYZ
    dof rx rz
    limits (-45.0 90.0)
           (-70.0 20.0)
  end
  begin
     id 5 
     name ltoes
     direction 1.53554e-011 -4.21866e-011 1   
     length 1.19593   
     axis -90 7.62852e-016 20   XYZ
    dof rx
    limits (-90.0 20.0)
  end
  begin
     id 6 
     name rhipjoint
     direction -0.675762 -0.671724 0.303533   
     length 2.66544  
     axis 0 0 0  XYZ 
  end
  begin
     id 7 
     name rfemur
     direction -0.34202 -0.939693 0   
     length 8.11844   
     axis 0 0 -20   XYZ
    dof rx ry rz
    limits (-160.0 20.0)
           (-70.0 70.0)
           (-70.0 60.0)
  end
  begin
     id 8 
     name rtibia
     direction -0.34202 -0.939693 0   
     length 7.97082   
     axis 0 0 -20   XYZ
    dof rx
    limits (-10.0 170.0)
 end
 begin
     id 9 
     name rfoot
     direction -0.0726228 -0.199474 0.977208   
     length 2.19677  
     axis -90 -7.62852e-016 -20   XYZ
    dof rx rz
    limits (-45.0 90.0)
           (-20.0 70.0)
  end
  begin
     id 10 
     name rtoes
     direction -1.53508e-011 -4.21913e-011 1   
     length 1.10438   
     axis -90 -7.62852e-016 -20   XYZ
    dof rx
    limits (-90.0 20.0)
  end
  begin
     id 11 
     name lowerback
     direction -0.00404436 0.999673 -0.0252643   
     length 2.03972   
     axis 0 0 0   XYZ
    dof rx ry rz
    limits (-20.0 45.0)
           (-30.0 30.0)
           (-30.0 30.0)
  end
  begin
     id 12 
     name upperback
     direction 0.00744643 0.999969 0.00242763   
     length 2.04273   
     axis 0 0 0   XYZ
    dof rx ry rz
    limits (-20.0 45.0)
           (-30.0 30.0)
           (-30.0 30.0)
  end
  begin
     id 13 
     name thorax
     direction 0.00846113 0.999862 0.0143204   
     length 2.03752   
     axis 0 0 0   XYZ
    dof rx ry rz
    limits (-20.0 45.0)
           (-30.0 30.0)
           (-30.0 30.0)
  end
  begin
     id 14 
     name lowerneck
     direction 0.0328213 0.990857 0.130862   
     length 1.37497   
     axis 0 0 0   XYZ
    dof rx ry rz
    limits (-20.0 45.0)
           (-30.0 30.0)
           (-30.0 30.0)
  end
  begin
     id 15 
     name upperneck
     direction -0.0302832 0.999496 0.00956452   
     length 1.35926   
     axis 0 0 0   XYZ
    dof rx ry rz
    limits (-20.0 45.0)
           (-30.0 30.0)
           (-30.0 30.0)
  end
  begin
     id 16
     name head
     direction -0.0130455 0.999856 -0.0108809  
     length 1.44454  
     axis 0 0 0   XYZ
    dof rx ry rz
    limits (-20.0 45.0)
           (-30.0 30.0)
           (-30.0 30.0)
  end
  begin
     id 17 
     name lclavicle
     direction 0.952957 0.278766 0.119006  
     length 3.10112  
     axis 0 0 0   XYZ
    dof ry rz
    limits (-20.0 10.0)
           (0.0 20.0)
  end
  begin
     id 18 
     name lhumerus
     direction 1 -4.48972e-011 -1.63238e-028   
     length 5.82845   
     axis -180 -30 -90   XYZ
    dof rx ry rz
    limits (-60.0 90.0)
           (-90.0 90.0)
           (-90.0 90.0)
  end
  begin
     id 19
     name lradius
     direction 1 -4.48959e-011 1.45401e-026   
     length 3.49691   
     axis -180 -30 -90   XYZ
    dof rx
    limits (-10.0 170.0)
  end
  begin
     id 20
     name lwrist
     direction 1 -4.48945e-011 2.98015e-026   
     length 1.74845   
     axis -1.7599e-014 90 90   XYZ
    dof ry
    limits (-180.0 0.0)
 end
  begin
     id 21 
     name lhand
     direction 1 -4.4902e-011 5.9603e-026   
     length 0.674998   
     axis -3.80318e-014 90 90   XYZ
    dof rx rz
    limits (-90.0 90.0)
           (-45.0 45.0)
  end
  begin
     id 22 
     name lfingers
     direction 1 -4.48979e-011 1.19206e-025   
     length 0.544201   
     axis -7.60636e-014 90 90   XYZ
    dof rx
    limits (0.0 90.0)
  end
  begin
     id 23
     name lthumb
     direction 0.707107 -6.34941e-011 0.707107   
     length 0.781367   
     axis -90 45 2.85299e-015   XYZ
    dof rx rz
    limits (-45.0 45.0)
           (-45.0 45.0)
  end
  begin
     id 24 
     name rclavicle
     direction -0.967632 0.241887 0.0719654   
     length 3.53012  
     axis 0 0 0   XYZ 
    dof ry rz
    limits (-10.0 20.0)
           (-20.0 0.0)
  end
  begin
     id 25 
     name rhumerus
     direction -1 -4.4897e-011 6.87619e-028  
     length 5.45859   
     axis -180 30 90   XYZ
    dof rx ry rz
    limits (-90.0 60.0)
           (-90.0 90.0)
           (-90.0 90.0)
  end
  begin
     id 26 
     name rradius
     direction -1 -4.48967e-011 1.68055e-026   
     length 3.58491   
     axis -180 30 90   XYZ
    dof rx
    limits (-10.0 170.0)
  end
  begin
     id 27 
     name rwrist
     direction -1 -4.48976e-011 2.98015e-026   
     length 1.79245   
     axis -1.7599e-014 -90 -90   XYZ
    dof ry
    limits (-180.0 0.0)
  end
  begin
     id 28
     name rhand
     direction -1 -4.48996e-011 5.9603e-026   
     length 0.683735   
     axis -3.80318e-014 -90 -90   XYZ
    dof rx rz
    limits (-90.0 90.0)
           (-45.0 45.0)
  end
  begin
     id 29
     name rfingers
     direction -1 -4.48924e-011 1.19206e-025   
     length 0.551245   
     axis -7.60636e-014 -90 -90   XYZ
    dof rx
    limits (0.0 90.0)
  end
  begin
     id 30
     name rthumb
     direction -0.707107 -6.3492e-011 0.707107   
     length 0.791481   
     axis -90 -45 -2.85299e-015   XYZ
    dof rx rz
    limits (-45.0 45.0)
           (-45.0 45.0)
  end
:hierarchy
  begin
    root lhipjoint rhipjoint lowerback
    lhipjoint lfemur
    lfemur ltibia
    ltibia lfoot
    lfoot ltoes
    rhipjoint rfemur
    rfemur rtibia
    rtibia rfoot
    rfoot rtoes
    lowerback upperback
    upperback thorax
    thorax lowerneck lclavicle rclavicle
    lowerneck upperneck
    upperneck head
    lclavicle lhumerus
    lhumerus lradius
    lradius lwrist
    lwrist lhand lthumb
    lhand lfingers
    rclavicle rhumerus
    rhumerus rradius
    rradius rwrist
    rwrist rhand rthumb
    rhand rfingers
  end

#!OML:ASF F:\VICON\USERDATA\INSTALL\rory3\rory3.ASF
:FULLY-SPECIFIED
:DEGREES
362
root -0.86233 17.0454 4.08422 -36.5992 -97.2344 28.6393
lowerback 12.8626 0.183625 -0.18059
upperback 0.433412 0.226067 0.715571
thorax -6.76979 0.110153 0.818199
lowerneck -8.05624 7.19348 4.48335
upperneck -4.45989 8.98391 -8.28517
head 0.600976 4.29022 -3.12877
rclavicle -1.41634e-015 7.55382e-015
rhumerus -36.8429 15.8891 -69.4179
rradius 60.1944
rwrist 1.2823
rhand 0.109865 44.4095
rfingers 7.12502
rthumb 25.6956 16.1239
lclavicle -1.41634e-015 7.55382e-015
lhumerus -33.9897 -20.8694 87.0226
lradius 41.7943
lwrist 28.923
lhand 157.817 -119.347
lfingers 7.12502
lthumb -175.768 -630.591
rfemur -13.4737 6.18877 24.8638
rtibia 55.1908
rfoot -28.1917 3.41323
rtoes -23.418
lfemur -5.01422 -2.78377 -10.3119
ltibia 49.394
lfoot -20.0456 17.1797
ltoes -13.386
363
root -0.823625 17.0744 4.11505 -26.5362 -96.9397 18.7871
lowerback 12.9783 0.168871 -0.987403
upperback 0.465667 0.0892101 0.764704
thorax -6.80005 0.0694174 1.35207
lowerneck -7.13089 7.59354 5.1597
upperneck -4.71102 9.49026 -9.13215
head 0.483265 4.55321 -3.55245
rclavicle -1.30483e-014 1.70955e-014
rhumerus -35.8479 19.1786 -72.0673
rradius 53.7011
rwrist 1.66429
rhand -1.20041 45.6688
rfingers 7.12502
rthumb 24.4401 17.2078
lclavicle -1.30483e-014 1.70955e-014
lhumerus -34.1142 -22.04 87.7686
lradius 40.6328
lwrist 28.1859
lhand 157.939 -119.317
lfingers 7.12502
lthumb -175.65 -630.618
rfemur -14.0371 6.6446 23.4789
rtibia 55.4299
rfoot -28.2417 1.748
rtoes -30.4012
lfemur -5.12778 -3.06881 -11.6792
ltibia 48.8658
lfoot -19.724 16.4104
ltoes -11.0561
364
root -0.783653 17.1192 4.14205 -17.3285 -96.703 9.91663
lowerback 12.994 0.183113 -1.54404
upperback 0.494097 0.0226602 0.730684
thorax -6.77724 0.0535453 1.64347
lowerneck -6.36124 7.82432 5.20669
upperneck -4.71691 9.83299 -9.48638
head 0.398551 4.74463 -3.69598
rclavicle 4.00287e-015 1.24737e-014
rhumerus -34.6822 21.8902 -74.5463
rradius 47.2508
rwrist 2.09804
rhand -1.0489 45.3713
rfingers 7.12502
rthumb 24.5853 16.93
lclavicle 4.00287e-015 1.24737e-014
lhumerus -33.8103 -23.347 88.4295
lradius 39.2763
lwrist 27.4224
lhand 158.231 -119.705
lfingers 7.12502
lthumb -175.368 -630.225
rfemur -14.6266 7.55304 22.1906
rtibia 55.5135
rfoot -28.1634 2.60867
rtoes -26.22
lfemur -5.47785 -3.32888 -12.6248
ltibia 48.4056
lfoot -17.22 16.1903
ltoes -16.8223
365
root -0.750042 17.1599 4.18035 -13.5882 -96.7962 6.39192
lowerback 13.2468 0.261666 -1.33627
upperback 0.482417 0.165763 0.908083
thorax -6.93724 0.120447 1.68802
lowerneck -6.44005 7.92837 5.28984
upperneck -4.1904 10.0086 -9.74135
head 0.617813 4.824 -3.77531
rclavicle 1.84287e-014 1.14301e-014
rhumerus -33.9594 25.3156 -76.2474
rradius 41.7993
rwrist 1.4444
rhand -2.11065 47.2721
rfingers 7.12502
rthumb 23.5673 18.6961
lclavicle 1.84287e-014 1.14301e-014
lhumerus -33.6517 -24.9338 89.4876
lradius 38.0492
lwrist 26.4421
lhand 158.56 -119.229
lfingers 7.12502
lthumb -175.051 -630.694
rfemur -14.9394 8.21971 21.5971
rtibia 55.3642
rfoot -28.0486 3.31031
rtoes -23.0676
lfemur -5.79712 -2.78825 -12.4436
ltibia 48.0863
lfoot -14.8834 14.3969
ltoes -21.8957
366
root -0.736557 17.1979 4.2475 -17.1328 -97.2823 9.68798
lowerback 13.8002 0.261097 0.115398
upperback 0.627464 0.396592 1.19304
thorax -7.09319 0.185604 1.12467
lowerneck -6.57571 7.95286 5.25421
upperneck -3.73202 10.0776 -9.83982
head 0.800432 4.85048 -3.78415
rclavicle 1.14301e-015 9.93923e-015
rhumerus -33.1862 27.2038 -78.0477
rradius 36.7699
rwrist 2.38509
rhand -2.55951 47.3361
rfingers 7.12502
rthumb 23.1367 18.7055
lclavicle 1.14301e-015 9.93923e-015
lhumerus -33.7082 -26.7051 90.5945
lradius 37.2076
lwrist 25.931
lhand 158.436 -119.361
lfingers 7.12502
lthumb -175.17 -630.564
rfemur -14.5502 8.75897 21.9746
rtibia 54.9783
rfoot -27.8411 3.50747
rtoes -21.4963
lfemur -5.38326 -2.52745 -11.393
ltibia 47.731
lfoot -14.5477 11.523
ltoes -20.0655
367
root -0.691166 17.2321 4.30366 -14.2406 -97.4305 7.09038
lowerback 14.3859 0.316858 0.235002
upperback 0.516906 0.501085 1.27231
thorax -7.54195 0.234136 1.12087
lowerneck -6.74121 8.03784 5.54247
upperneck -3.48693 10.1897 -9.9746
head 0.945033 4.89573 -3.86641
rclavicle 2.55003e-015 1.78906e-015
rhumerus -31.9811 26.9146 -79.2338
rradius 32.2929
rwrist 5.3385
rhand -0.853475 47.2155
rfingers 7.12502
rthumb 24.7726 18.7998
lclavicle 2.55003e-015 1.78906e-015
lhumerus -33.3817 -27.2868 90.946
lradius 36.4844
lwrist 24.6916
lhand 158.4 -118.924
lfingers 7.12502
lthumb -175.205 -631.001
rfemur -14.9547 9.31501 21.495
rtibia 54.629
rfoot -27.4983 3.86637
rtoes -18.0341
lfemur -5.60611 -2.88353 -11.1556
ltibia 47.1808
lfoot -14.519 7.99449
ltoes -13.0033
368
root -0.688056 17.2791 4.35265 -6.80236 -97.8394 -0.278706
lowerback 14.4583 0.534394 -0.201431
upperback 0.531313 0.702422 1.047
thorax -7.5731 0.34391 1.08624
lowerneck -6.80659 8.10793 6.00772
upperneck -3.18041 10.2817 -10.0658
head 1.09976 4.93404 -3.97096
rclavicle 8.32877e-015 1.43125e-014
rhumerus -30.8531 24.8523 -79.8017
rradius 28.7808
rwrist 9.91063
rhand -1.62151 47.9384
rfingers 7.12502
rthumb 24.0364 19.4236
lclavicle 8.32877e-015 1.43125e-014
lhumerus -33.282 -28.0044 90.9404
lradius 36.4098
lwrist 24.4071
lhand 157.69 -118.967
lfingers 7.12502
lthumb -175.891 -630.973
rfemur -15.011 10.3622 20.3272
rtibia 54.2616
rfoot -27.4443 4.10939
rtoes -15.4059
lfemur -5.22244 -3.21965 -11.8243
ltibia 46.3241
lfoot -13.9934 5.14937
ltoes -8.35241
